<?xml version="1.0" encoding="utf-8"?>
<!-- Generator: Adobe Illustrator 16.0.0, SVG Export Plug-In . SVG Version: 6.00 Build 0)  -->
<!DOCTYPE svg PUBLIC "-//W3C//DTD SVG 1.1//EN" "http://www.w3.org/Graphics/SVG/1.1/DTD/svg11.dtd">
<svg version="1.1" id="Layer_1" xmlns="http://www.w3.org/2000/svg" xmlns:xlink="http://www.w3.org/1999/xlink" x="0px" y="0px"
	 width="109.002px" height="109.002px" viewBox="0 0 109.002 109.002" enable-background="new 0 0 109.002 109.002"
	 xml:space="preserve">
<path fill="#B1BF36" d="M93.039,15.963c-21.283-21.283-55.792-21.283-77.076,0c-21.284,21.284-21.284,55.792,0,77.077
	c21.284,21.282,55.792,21.282,77.076,0C114.323,71.756,114.323,37.248,93.039,15.963z M81.696,67.645
	c1.164,1.164,1.164,3.051,0,4.215l-9.836,9.84c-1.166,1.162-3.053,1.162-4.217,0L54.502,68.555L41.36,81.697
	c-1.164,1.164-3.053,1.164-4.217,0l-9.836-9.836c-1.164-1.166-1.164-3.053,0-4.217l13.141-13.144L27.306,41.359
	c-1.164-1.166-1.164-3.053,0-4.217l9.838-9.836c1.164-1.164,3.051-1.164,4.215,0l13.144,13.142l13.144-13.144
	c1.164-1.164,3.051-1.164,4.215,0l9.839,9.838c1.163,1.164,1.163,3.051,0,4.215L68.556,54.501L81.696,67.645z"/>
</svg>
