<?xml version="1.0" encoding="utf-8"?>
<!-- Generator: Adobe Illustrator 16.0.0, SVG Export Plug-In . SVG Version: 6.00 Build 0)  -->
<!DOCTYPE svg PUBLIC "-//W3C//DTD SVG 1.1//EN" "http://www.w3.org/Graphics/SVG/1.1/DTD/svg11.dtd">
<svg version="1.1" id="Layer_1" xmlns="http://www.w3.org/2000/svg" xmlns:xlink="http://www.w3.org/1999/xlink" x="0px" y="0px"
	 width="600px" height="600px" viewBox="0 0 600 600" enable-background="new 0 0 600 600" xml:space="preserve">
<g>
	<path fill="#B1BF36" d="M453,405H313c-22.07,0-40,17.93-40,40s17.93,40,40,40h140c22.07,0,40-17.93,40-40S475.07,405,453,405z"/>
	<path fill="#B1BF36" d="M453,265H313c-22.07,0-40,17.939-40,40c0,22.07,17.93,40,40,40h140c22.07,0,40-17.93,40-40
		C493,282.939,475.07,265,453,265z"/>
	<path fill="#B1BF36" d="M453,125H313c-22.07,0-40,17.939-40,40s17.93,40,40,40h140c22.07,0,40-17.939,40-40S475.07,125,453,125z"/>
	<path fill="#B1BF36" d="M173,395c27.617,0,50,22.383,50,50s-22.383,50-50,50s-50-22.383-50-50S145.383,395,173,395z"/>
	<path fill="#B1BF36" d="M173,255c27.617,0,50,22.383,50,50s-22.383,50-50,50s-50-22.383-50-50S145.383,255,173,255z"/>
	<path fill="#B1BF36" d="M173,115c27.617,0,50,22.383,50,50s-22.383,50-50,50s-50-22.383-50-50S145.383,115,173,115z"/>
</g>
</svg>
