<?xml version="1.0" encoding="utf-8"?>
<!-- Generator: Adobe Illustrator 16.0.0, SVG Export Plug-In . SVG Version: 6.00 Build 0)  -->
<!DOCTYPE svg PUBLIC "-//W3C//DTD SVG 1.1//EN" "http://www.w3.org/Graphics/SVG/1.1/DTD/svg11.dtd">
<svg version="1.1" id="Layer_3" xmlns="http://www.w3.org/2000/svg" xmlns:xlink="http://www.w3.org/1999/xlink" x="0px" y="0px"
	 width="600px" height="600px" viewBox="0 0 600 600" enable-background="new 0 0 600 600" xml:space="preserve">
<g>
	<path fill="#1A351A" d="M361.179,299.126c0,6.629-2.525,13.261-7.575,18.315L194.507,476.536
		c-10.126,10.121-26.531,10.121-36.646,0c-10.116-10.117-10.116-26.522,0-36.645l140.775-140.768L157.863,158.361
		c-10.115-10.118-10.115-26.53,0-36.646c10.117-10.121,26.527-10.121,36.644,0L353.61,280.806
		C358.663,285.862,361.18,292.494,361.179,299.126z"/>
	<path fill="#1A351A" d="M425.727,113.625c13.257,0,24,10.745,24,24v324.75c0,13.255-10.743,24-24,24c-13.254,0-24-10.745-24-24
		v-324.75C401.727,124.37,412.473,113.625,425.727,113.625z"/>
</g>
</svg>
