<?xml version="1.0" encoding="utf-8"?>
<!-- Generator: Adobe Illustrator 16.0.0, SVG Export Plug-In . SVG Version: 6.00 Build 0)  -->
<!DOCTYPE svg PUBLIC "-//W3C//DTD SVG 1.1//EN" "http://www.w3.org/Graphics/SVG/1.1/DTD/svg11.dtd">
<svg version="1.1" id="Capa_1" xmlns="http://www.w3.org/2000/svg" xmlns:xlink="http://www.w3.org/1999/xlink" x="0px" y="0px"
	 width="57.646px" height="52.566px" viewBox="0 0 57.646 52.566" enable-background="new 0 0 57.646 52.566" xml:space="preserve">
<g>
	<path fill="#B1BF36" d="M1.349,30.069c0.499,0.33,1.075,0.494,1.65,0.494c0.576,0,1.152-0.165,1.651-0.494
		c0.166-0.11,0.324-0.238,0.47-0.385l1.956-1.956v13.698c0,6.039,5.337,11.142,11.654,11.142h21.12
		c6.188,0,11.226-4.998,11.226-11.142V28.238l1.447,1.447c0.585,0.586,1.354,0.879,2.121,0.879c0.767,0,1.535-0.293,2.121-0.879
		c1.172-1.172,1.172-3.071,0-4.242L33.065,1.74c-2.193-2.192-5.659-2.303-8.013-0.385c-0.158,0.128-0.325,0.238-0.473,0.385
		L0.879,25.442c-1.172,1.171-1.172,3.07,0,4.242C1.025,29.83,1.183,29.958,1.349,30.069z M45.077,22.237v19.189
		c0,2.834-2.345,5.141-5.227,5.141H18.73c-3.011,0.001-5.653-2.401-5.653-5.141V21.728L28.823,5.983L45.077,22.237z"/>
</g>
</svg>
